<svg id="visual" viewBox="0 0 960 540" width="960" height="540" xmlns="http://www.w3.org/2000/svg" xmlns:xlink="http://www.w3.org/1999/xlink" version="1.1"><rect x="0" y="0" width="960" height="540" fill="#001220"></rect><path d="M0 349L22.8 353.2C45.7 357.3 91.3 365.7 137 374.2C182.7 382.7 228.3 391.3 274 387.5C319.7 383.7 365.3 367.3 411.2 356.5C457 345.7 503 340.3 548.8 341.3C594.7 342.3 640.3 349.7 686 356C731.7 362.3 777.3 367.7 823 365.3C868.7 363 914.3 353 937.2 348L960 343L960 541L937.2 541C914.3 541 868.7 541 823 541C777.3 541 731.7 541 686 541C640.3 541 594.7 541 548.8 541C503 541 457 541 411.2 541C365.3 541 319.7 541 274 541C228.3 541 182.7 541 137 541C91.3 541 45.7 541 22.8 541L0 541Z" fill="#715df2"></path><path d="M0 426L22.8 426.8C45.7 427.7 91.3 429.3 137 422.2C182.7 415 228.3 399 274 391.8C319.7 384.7 365.3 386.3 411.2 393.5C457 400.7 503 413.3 548.8 412.2C594.7 411 640.3 396 686 385C731.7 374 777.3 367 823 373.8C868.7 380.7 914.3 401.3 937.2 411.7L960 422L960 541L937.2 541C914.3 541 868.7 541 823 541C777.3 541 731.7 541 686 541C640.3 541 594.7 541 548.8 541C503 541 457 541 411.2 541C365.3 541 319.7 541 274 541C228.3 541 182.7 541 137 541C91.3 541 45.7 541 22.8 541L0 541Z" fill="#6360f6"></path><path d="M0 396L22.8 395.7C45.7 395.3 91.3 394.7 137 395.5C182.7 396.3 228.3 398.7 274 404.7C319.7 410.7 365.3 420.3 411.2 422.7C457 425 503 420 548.8 416.2C594.7 412.3 640.3 409.7 686 409.7C731.7 409.7 777.3 412.3 823 420.5C868.7 428.7 914.3 442.3 937.2 449.2L960 456L960 541L937.2 541C914.3 541 868.7 541 823 541C777.3 541 731.7 541 686 541C640.3 541 594.7 541 548.8 541C503 541 457 541 411.2 541C365.3 541 319.7 541 274 541C228.3 541 182.7 541 137 541C91.3 541 45.7 541 22.8 541L0 541Z" fill="#5162f9"></path><path d="M0 472L22.8 468.8C45.7 465.7 91.3 459.3 137 456.8C182.7 454.3 228.3 455.7 274 461.3C319.7 467 365.3 477 411.2 481.5C457 486 503 485 548.8 477.2C594.7 469.3 640.3 454.7 686 453.3C731.7 452 777.3 464 823 465.8C868.7 467.7 914.3 459.3 937.2 455.2L960 451L960 541L937.2 541C914.3 541 868.7 541 823 541C777.3 541 731.7 541 686 541C640.3 541 594.7 541 548.8 541C503 541 457 541 411.2 541C365.3 541 319.7 541 274 541C228.3 541 182.7 541 137 541C91.3 541 45.7 541 22.8 541L0 541Z" fill="#3964fc"></path><path d="M0 499L22.8 499.3C45.7 499.7 91.3 500.3 137 496.2C182.7 492 228.3 483 274 479.3C319.7 475.7 365.3 477.3 411.2 479.3C457 481.3 503 483.7 548.8 486.3C594.7 489 640.3 492 686 496.5C731.7 501 777.3 507 823 506.3C868.7 505.7 914.3 498.3 937.2 494.7L960 491L960 541L937.2 541C914.3 541 868.7 541 823 541C777.3 541 731.7 541 686 541C640.3 541 594.7 541 548.8 541C503 541 457 541 411.2 541C365.3 541 319.7 541 274 541C228.3 541 182.7 541 137 541C91.3 541 45.7 541 22.8 541L0 541Z" fill="#0066ff"></path></svg>