<svg id="visual" viewBox="0 0 900 600" width="900" height="600" xmlns="http://www.w3.org/2000/svg" xmlns:xlink="http://www.w3.org/1999/xlink" version="1.1"><rect x="0" y="0" width="900" height="600" fill="#001220"></rect><path d="M0 429L21.5 430.3C43 431.7 86 434.3 128.8 423C171.7 411.7 214.3 386.3 257.2 386.8C300 387.3 343 413.7 385.8 418.5C428.7 423.3 471.3 406.7 514.2 407.8C557 409 600 428 642.8 437.3C685.7 446.7 728.3 446.3 771.2 434.5C814 422.7 857 399.3 878.5 387.7L900 376L900 601L878.5 601C857 601 814 601 771.2 601C728.3 601 685.7 601 642.8 601C600 601 557 601 514.2 601C471.3 601 428.7 601 385.8 601C343 601 300 601 257.2 601C214.3 601 171.7 601 128.8 601C86 601 43 601 21.5 601L0 601Z" fill="#69b8fa"></path><path d="M0 461L21.5 460.2C43 459.3 86 457.7 128.8 451.3C171.7 445 214.3 434 257.2 424.7C300 415.3 343 407.7 385.8 413.3C428.7 419 471.3 438 514.2 442C557 446 600 435 642.8 434.8C685.7 434.7 728.3 445.3 771.2 454.3C814 463.3 857 470.7 878.5 474.3L900 478L900 601L878.5 601C857 601 814 601 771.2 601C728.3 601 685.7 601 642.8 601C600 601 557 601 514.2 601C471.3 601 428.7 601 385.8 601C343 601 300 601 257.2 601C214.3 601 171.7 601 128.8 601C86 601 43 601 21.5 601L0 601Z" fill="#859bef"></path><path d="M0 470L21.5 475.7C43 481.3 86 492.7 128.8 487.2C171.7 481.7 214.3 459.3 257.2 460C300 460.7 343 484.3 385.8 495.8C428.7 507.3 471.3 506.7 514.2 503.2C557 499.7 600 493.3 642.8 492.7C685.7 492 728.3 497 771.2 490.8C814 484.7 857 467.3 878.5 458.7L900 450L900 601L878.5 601C857 601 814 601 771.2 601C728.3 601 685.7 601 642.8 601C600 601 557 601 514.2 601C471.3 601 428.7 601 385.8 601C343 601 300 601 257.2 601C214.3 601 171.7 601 128.8 601C86 601 43 601 21.5 601L0 601Z" fill="#a878d2"></path><path d="M0 499L21.5 502.7C43 506.3 86 513.7 128.8 514.2C171.7 514.7 214.3 508.3 257.2 506.8C300 505.3 343 508.7 385.8 507C428.7 505.3 471.3 498.7 514.2 496.7C557 494.7 600 497.3 642.8 496C685.7 494.7 728.3 489.3 771.2 495.3C814 501.3 857 518.7 878.5 527.3L900 536L900 601L878.5 601C857 601 814 601 771.2 601C728.3 601 685.7 601 642.8 601C600 601 557 601 514.2 601C471.3 601 428.7 601 385.8 601C343 601 300 601 257.2 601C214.3 601 171.7 601 128.8 601C86 601 43 601 21.5 601L0 601Z" fill="#c050a3"></path><path d="M0 533L21.5 536.5C43 540 86 547 128.8 551.5C171.7 556 214.3 558 257.2 558.7C300 559.3 343 558.7 385.8 561C428.7 563.3 471.3 568.7 514.2 565.7C557 562.7 600 551.3 642.8 550.8C685.7 550.3 728.3 560.7 771.2 565C814 569.3 857 567.7 878.5 566.8L900 566L900 601L878.5 601C857 601 814 601 771.2 601C728.3 601 685.7 601 642.8 601C600 601 557 601 514.2 601C471.3 601 428.7 601 385.8 601C343 601 300 601 257.2 601C214.3 601 171.7 601 128.8 601C86 601 43 601 21.5 601L0 601Z" fill="#c62368"></path></svg>