<svg xmlns="http://www.w3.org/2000/svg" width="117" height="40" viewBox="0 0 117 40" fill="none"><path d="M2.8728 14.3961C3.66283 13.9199 5.96485 12.7216 9.09092 12.7216C11.1283 12.7216 12.8142 13.2319 13.9596 13.7157L16.8853 11.8522C15.3506 11.0773 12.5836 10 9.09092 10C3.96145 10 0.389341 12.3323 0 12.5969C0.00378001 15.8477 0.567 18.9019 1.63674 21.5593L3.88207 20.1304C3.25081 18.403 2.90683 16.46 2.86903 14.3961H2.8728Z" fill="#0073EA"></path><path d="M15.0932 16.9817C14.8097 18.8225 14.2616 20.516 13.464 21.9826C12.3867 23.9633 10.8785 25.5056 9.09052 26.4619C7.66545 25.7021 6.41805 24.5644 5.42769 23.1355L3.1748 24.5681C4.70571 26.9722 6.73179 28.8396 9.09052 30C11.7819 28.6732 14.0423 26.4317 15.6261 23.5173C16.9454 21.0868 17.7732 18.2102 18.0643 15.0879L15.0969 16.9779L15.0932 16.9817Z" fill="#041221"></path><path d="M24.4072 23.0856L25.0234 22.4468C25.4089 23.3805 26.524 24.0987 27.934 24.0987C29.1625 24.0987 30.2133 23.5846 30.2133 22.3296C30.2247 21.0104 28.9962 20.5492 27.7412 20.0881C26.422 19.5891 25.0385 19.0902 25.0385 17.5366C25.0385 15.8583 26.4106 15.0645 27.9226 15.0645C29.2797 15.0645 30.3305 15.6163 30.9353 16.3194L30.3456 16.9204C29.9109 16.3043 29.0907 15.8167 27.9226 15.8167C26.8831 15.8167 25.923 16.3156 25.923 17.4685C25.923 18.5572 26.9852 18.9805 28.1532 19.4152C29.5518 19.952 31.1016 20.519 31.1016 22.2843C31.1016 24.0495 29.6917 24.9227 27.9226 24.9227C26.335 24.9227 25.0007 24.1289 24.411 23.0781L24.4072 23.0856Z" fill="#041221"></path><path d="M36.8624 15.9603V19.6005H40.6311V20.3829H36.8624V24.0231H41.1678V24.8055H35.9892V15.193H41.1678V15.9603H36.8624Z" fill="#041221"></path><path d="M53.88 15.193V24.8055H53.0976L46.9966 16.6558V24.8055H46.1234V15.193H46.9059L53.0182 23.3427V15.193H53.88Z" fill="#041221"></path><path d="M59.1379 15.193H61.6894C64.343 15.193 66.4938 17.3438 66.4938 19.9973C66.4938 22.6509 64.3392 24.8017 61.6894 24.8017H59.1379V15.1892V15.193ZM61.6743 24.0231C63.878 24.0231 65.6206 22.2427 65.6206 20.0011C65.6206 17.7596 63.878 15.9641 61.6743 15.9641H59.9959V24.0231H61.6743Z" fill="#041221"></path><path d="M80.7935 15.193V24.8055H79.9355V16.4895L76.0912 22.2427L72.2734 16.4895V24.8055H71.4002V15.193H72.3112L76.0912 20.8176L79.8977 15.193H80.7935Z" fill="#041221"></path><path d="M92.2395 22.7152H87.076L86.2671 24.8055H85.3183L89.1739 15.193H90.134L93.9896 24.8055H93.0409L92.2319 22.7152H92.2395ZM91.9447 21.9705L89.6502 16.1002L87.3708 21.9705H91.9447Z" fill="#041221"></path><path d="M104.721 24.8017H103.746L101.376 20.4207H99.3874V24.8017H98.5142V15.1892H101.859C103.319 15.1892 104.498 16.3685 104.498 17.8427C104.498 19.1506 103.523 20.2128 102.256 20.3791L104.717 24.8017H104.721ZM101.837 19.6874C102.876 19.6874 103.708 18.8558 103.708 17.8163C103.708 16.7768 102.861 15.9565 101.837 15.9565H99.3874V19.6874H101.837Z" fill="#041221"></path><path d="M108.758 19.9974C108.758 17.2682 110.72 15.0645 113.449 15.0645C114.5 15.0645 115.46 15.4349 116.216 16.0624V17.1246C115.434 16.293 114.5 15.8809 113.449 15.8809C111.17 15.8809 109.578 17.6991 109.578 19.9936C109.578 22.288 111.166 24.0949 113.449 24.0949C114.5 24.0949 115.46 23.6829 116.216 22.8626V23.9134C115.46 24.5409 114.5 24.9265 113.449 24.9265C110.72 24.9265 108.758 22.7227 108.758 19.9936V19.9974Z" fill="#041221"></path></svg>